<svg width="33" height="33" viewBox="0 0 33 33" fill="none" xmlns="http://www.w3.org/2000/svg">
<g clip-path="url(#clip0_24_43)">
<path d="M22.5381 9.4865C22.5168 11.0294 21.998 12.4021 21.0483 13.4591C21.0468 13.4606 21.0452 13.4621 21.0437 13.4636C20.5051 14.0042 19.8771 14.4006 19.1853 14.724C18.3448 15.1189 17.5013 15.3163 16.6623 15.3163C15.8734 15.3163 15.1437 15.1629 14.4671 14.8546C13.792 14.5479 13.1973 14.1288 12.6784 13.5912C12.1641 13.0567 11.7621 12.4295 11.4845 11.7082C11.2038 10.9929 11.0612 10.2184 11.0612 9.39538C11.0612 8.57232 11.2038 7.77355 11.4845 7.05375C11.7621 6.33395 12.1641 5.7083 12.6784 5.17072C13.1973 4.63771 13.792 4.22162 14.4671 3.92094C15.1437 3.62482 15.8734 3.476 16.6623 3.476C17.5195 3.476 18.3782 3.69164 19.2399 4.11836C20.0971 4.54963 20.8313 5.14187 21.4442 5.89508L23.8655 3.05536C23.2511 2.40541 22.5548 1.85721 21.7734 1.41075C20.9952 0.96125 20.1623 0.6135 19.2763 0.369011C18.3918 0.124521 17.5013 0 16.6107 0C15.2089 0 13.9164 0.238416 12.733 0.712209C11.5512 1.18448 10.5105 1.85265 9.61539 2.71216C8.72485 3.57015 8.03154 4.57241 7.54151 5.71133C7.04845 6.85178 6.8042 8.08789 6.8042 9.42119C6.8042 9.44245 6.8042 9.46524 6.80572 9.4865H0L4.13258 33H28.9903L33 9.4865H22.5381ZM25.369 28.7419H7.69171L5.0565 13.7446H7.79942C8.26062 14.6709 8.85229 15.4985 9.57898 16.2213C10.4437 17.0915 11.4632 17.7672 12.6284 18.2502C13.792 18.7331 15.0663 18.9745 16.4499 18.9745C17.345 18.9745 18.2386 18.8348 19.1337 18.5645C20.0273 18.2942 20.8829 17.91 21.6961 17.421C22.0177 17.2266 22.3272 17.0277 22.752 16.7103C23.289 16.2365 23.7563 15.7627 24.2676 14.9928C24.5346 14.5874 24.7728 14.1728 24.9836 13.7446H27.9253L25.369 28.7419Z" fill="#5A3E36"/>
</g>
<defs>
<clipPath id="clip0_24_43">
<rect width="33" height="33" fill="white"/>
</clipPath>
</defs>
</svg>
