<svg width="113" height="56" viewBox="0 0 113 56" fill="none" xmlns="http://www.w3.org/2000/svg">
<g filter="url(#filter0_d_509_13219)">
<rect x="2" y="2" width="105" height="48" rx="24" fill="white"/>
<path fill-rule="evenodd" clip-rule="evenodd" d="M42.5 20.1667V18.5H27.5V20.1667H28.3333L32.5 26.4167V33.5H37.5V26.4167L41.6667 20.1667H42.5ZM34.1667 25.9117L30.3367 20.1667H39.6633L35.8333 25.9117V31.8333H34.1667V25.9117Z" fill="#001018"/>
<path d="M50.104 22.1H55.744L55.732 23.312H51.52V25.808H55.336V27.008H51.52V30.5H50.104V22.1ZM56.9223 24.128H58.2903V30.5H56.9223V24.128ZM57.6063 21.5C57.8383 21.5 58.0303 21.576 58.1823 21.728C58.3343 21.88 58.4103 22.072 58.4103 22.304C58.4103 22.528 58.3343 22.72 58.1823 22.88C58.0303 23.032 57.8383 23.108 57.6063 23.108C57.3823 23.108 57.1903 23.032 57.0303 22.88C56.8783 22.72 56.8023 22.528 56.8023 22.304C56.8023 22.072 56.8783 21.88 57.0303 21.728C57.1903 21.576 57.3823 21.5 57.6063 21.5ZM60.3925 21.596H61.7725V30.5H60.3925V21.596ZM65.4916 28.484C65.4916 28.828 65.5516 29.064 65.6716 29.192C65.7916 29.312 65.9596 29.372 66.1756 29.372C66.3196 29.372 66.4676 29.348 66.6196 29.3C66.7796 29.252 66.9516 29.18 67.1356 29.084L67.4836 30.08C67.2356 30.232 66.9796 30.352 66.7156 30.44C66.4516 30.52 66.1836 30.56 65.9116 30.56C65.5916 30.56 65.2956 30.5 65.0236 30.38C64.7516 30.252 64.5316 30.052 64.3636 29.78C64.2036 29.508 64.1236 29.156 64.1236 28.724V22.616H65.4916V28.484ZM63.2236 24.356H67.3756V25.34H63.2236V24.356ZM73.104 26.852C73.088 26.492 73.004 26.188 72.852 25.94C72.708 25.684 72.504 25.488 72.24 25.352C71.976 25.208 71.672 25.136 71.328 25.136C70.944 25.136 70.608 25.224 70.32 25.4C70.04 25.576 69.82 25.824 69.66 26.144C69.5 26.456 69.42 26.824 69.42 27.248C69.42 27.704 69.504 28.1 69.672 28.436C69.848 28.772 70.088 29.032 70.392 29.216C70.704 29.4 71.06 29.492 71.46 29.492C72.172 29.492 72.772 29.24 73.26 28.736L73.992 29.468C73.68 29.812 73.3 30.08 72.852 30.272C72.404 30.456 71.904 30.548 71.352 30.548C70.696 30.548 70.124 30.412 69.636 30.14C69.148 29.868 68.768 29.492 68.496 29.012C68.224 28.524 68.088 27.96 68.088 27.32C68.088 26.68 68.224 26.12 68.496 25.64C68.768 25.152 69.148 24.772 69.636 24.5C70.124 24.228 70.684 24.088 71.316 24.08C72.068 24.08 72.672 24.236 73.128 24.548C73.584 24.852 73.908 25.284 74.1 25.844C74.292 26.404 74.36 27.068 74.304 27.836H69.204V26.852H73.104ZM79.3307 25.328C78.8747 25.304 78.4787 25.384 78.1427 25.568C77.8147 25.744 77.5587 25.992 77.3747 26.312C77.1987 26.632 77.1107 27 77.1107 27.416L76.7267 27.368C76.7267 26.656 76.8307 26.056 77.0387 25.568C77.2467 25.08 77.5467 24.712 77.9387 24.464C78.3307 24.208 78.7947 24.08 79.3307 24.08V25.328ZM75.7427 24.128H77.1227V30.5H75.7427V24.128Z" fill="black"/>
</g>
<defs>
<filter id="filter0_d_509_13219" x="0" y="0" width="113" height="56" filterUnits="userSpaceOnUse" color-interpolation-filters="sRGB">
<feFlood flood-opacity="0" result="BackgroundImageFix"/>
<feColorMatrix in="SourceAlpha" type="matrix" values="0 0 0 0 0 0 0 0 0 0 0 0 0 0 0 0 0 0 127 0" result="hardAlpha"/>
<feOffset dx="2" dy="2"/>
<feGaussianBlur stdDeviation="2"/>
<feComposite in2="hardAlpha" operator="out"/>
<feColorMatrix type="matrix" values="0 0 0 0 0 0 0 0 0 0 0 0 0 0 0 0 0 0 0.25 0"/>
<feBlend mode="normal" in2="BackgroundImageFix" result="effect1_dropShadow_509_13219"/>
<feBlend mode="normal" in="SourceGraphic" in2="effect1_dropShadow_509_13219" result="shape"/>
</filter>
</defs>
</svg>
