<svg width="41" height="41" viewBox="0 0 41 41" fill="none" xmlns="http://www.w3.org/2000/svg">
<path fill-rule="evenodd" clip-rule="evenodd" d="M20.25 4C11.275 4 4 11.275 4 20.25C4 29.225 11.275 36.5 20.25 36.5C29.225 36.5 36.5 29.225 36.5 20.25C36.5 11.275 29.225 4 20.25 4ZM17.3833 15.6167C17.2689 15.4939 17.1309 15.3954 16.9776 15.327C16.8242 15.2587 16.6587 15.222 16.4909 15.219C16.323 15.2161 16.1563 15.2469 16.0007 15.3098C15.845 15.3727 15.7036 15.4662 15.5849 15.5849C15.4662 15.7036 15.3727 15.845 15.3098 16.0007C15.2469 16.1563 15.2161 16.323 15.219 16.4909C15.222 16.6587 15.2587 16.8242 15.327 16.9776C15.3954 17.1309 15.4939 17.2689 15.6167 17.3833L18.4833 20.25L15.6167 23.1167C15.4939 23.2311 15.3954 23.3691 15.327 23.5224C15.2587 23.6758 15.222 23.8413 15.219 24.0091C15.2161 24.177 15.2469 24.3437 15.3098 24.4993C15.3727 24.655 15.4662 24.7964 15.5849 24.9151C15.7036 25.0338 15.845 25.1273 16.0007 25.1902C16.1563 25.2531 16.323 25.2839 16.4909 25.281C16.6587 25.278 16.8242 25.2413 16.9776 25.173C17.1309 25.1046 17.2689 25.0061 17.3833 24.8833L20.25 22.0167L23.1167 24.8833C23.2311 25.0061 23.3691 25.1046 23.5224 25.173C23.6758 25.2413 23.8413 25.278 24.0091 25.281C24.177 25.2839 24.3437 25.2531 24.4993 25.1902C24.655 25.1273 24.7964 25.0338 24.9151 24.9151C25.0338 24.7964 25.1273 24.655 25.1902 24.4993C25.2531 24.3437 25.2839 24.177 25.281 24.0091C25.278 23.8413 25.2413 23.6758 25.173 23.5224C25.1046 23.3691 25.0061 23.2311 24.8833 23.1167L22.0167 20.25L24.8833 17.3833C25.0061 17.2689 25.1046 17.1309 25.173 16.9776C25.2413 16.8242 25.278 16.6587 25.281 16.4909C25.2839 16.323 25.2531 16.1563 25.1902 16.0007C25.1273 15.845 25.0338 15.7036 24.9151 15.5849C24.7964 15.4662 24.655 15.3727 24.4993 15.3098C24.3437 15.2469 24.177 15.2161 24.0091 15.219C23.8413 15.222 23.6758 15.2587 23.5224 15.327C23.3691 15.3954 23.2311 15.4939 23.1167 15.6167L20.25 18.4833L17.3833 15.6167Z" fill="#5A3E36"/>
</svg>
